<?xml version="1.0" encoding="utf-8"?>
<!-- Generator: Adobe Illustrator 24.0.1, SVG Export Plug-In . SVG Version: 6.00 Build 0)  -->
<svg version="1.1" id="Layer_1" xmlns="http://www.w3.org/2000/svg" xmlns:xlink="http://www.w3.org/1999/xlink" x="0px" y="0px"
	 viewBox="0 0 24 24" style="enable-background:new 0 0 24 24;" xml:space="preserve">
<style type="text/css">
	.st0{fill:none;}
	.st1{fill:#008000;stroke:#008000;stroke-miterlimit:10;}
</style>
<rect class="st0" width="24" height="24"/>
<path class="st1" d="M21.4,5.2L9.7,16.9l-4.3-4.3l1.4-1.4L9.7,14L19.9,3.8L21.4,5.2z M11.2,20.3c-4.5,0-8.1-3.7-8.1-8.1
	S6.7,4,11.2,4c1.6,0,3.1,0.5,4.4,1.3L17,3.8C15.4,2.7,13.4,2,11.2,2C5.6,2,1,6.6,1,12.2s4.6,10.2,10.2,10.2c1.8,0,3.4-0.4,4.9-1.2
	l-1.5-1.5C13.5,20.1,12.4,20.3,11.2,20.3z M18.3,15.2h-3.1v2h3.1v3.1h2v-3.1h3.1v-2h-3.1v-3.1h-2V15.2z"/>
</svg>
