<?xml version="1.0" encoding="utf-8"?>
<!-- Generator: Adobe Illustrator 24.0.1, SVG Export Plug-In . SVG Version: 6.00 Build 0)  -->
<svg version="1.1" id="Layer_1" xmlns="http://www.w3.org/2000/svg" xmlns:xlink="http://www.w3.org/1999/xlink" x="0px" y="0px"
	 viewBox="0 0 50 50" style="enable-background:new 0 0 50 50;" xml:space="preserve">
<style type="text/css">
	.st0{fill:#339933;}
	.st1{fill:#FFFFFF;}
</style>
<circle class="st0" cx="25" cy="25" r="22.5"/>
<rect x="1.3" y="18.9" class="st1" width="47.1" height="12.2"/>
<g>
	<path class="st0" d="M7.7,26.6H5.8l-0.3,1.1H4L6.1,22h1.3l2.1,5.7H8L7.7,26.6z M6.1,25.5h1.2l-0.6-2L6.1,25.5z"/>
	<path class="st0" d="M11.8,26.1L13,22h1.5l-1.9,5.7h-1.5L9.2,22h1.5L11.8,26.1z"/>
	<path class="st0" d="M17.8,26.6H16l-0.3,1.1h-1.5l2.1-5.7h1.3l2.1,5.7h-1.5L17.8,26.6z M16.3,25.5h1.2l-0.6-2L16.3,25.5z"/>
	<path class="st0" d="M21.5,27.7h-1.4V22h1.4V27.7z"/>
	<path class="st0" d="M23.8,26.6h2.4v1.1h-3.8V22h1.4V26.6z"/>
	<path class="st0" d="M30.1,26.6h-1.9l-0.3,1.1h-1.5l2.1-5.7h1.3l2.1,5.7h-1.5L30.1,26.6z M28.6,25.5h1.2l-0.6-2L28.6,25.5z"/>
	<path class="st0" d="M32.3,27.7V22h2c0.7,0,1.3,0.1,1.7,0.4s0.6,0.7,0.6,1.2c0,0.3-0.1,0.5-0.2,0.8s-0.3,0.4-0.6,0.5
		c0.3,0.1,0.5,0.2,0.7,0.4s0.2,0.5,0.2,0.8c0,0.6-0.2,1-0.5,1.3s-0.9,0.4-1.6,0.4H32.3z M33.7,24.3h0.7c0.3,0,0.5-0.1,0.6-0.2
		c0.1-0.1,0.2-0.3,0.2-0.5c0-0.2-0.1-0.4-0.2-0.5S34.7,23,34.4,23h-0.7V24.3z M33.7,25.2v1.4h0.9c0.2,0,0.4-0.1,0.6-0.2
		s0.2-0.3,0.2-0.5c0-0.5-0.2-0.7-0.7-0.7H33.7z"/>
	<path class="st0" d="M38.9,26.6h2.4v1.1h-3.8V22h1.4V26.6z"/>
	<path class="st0" d="M45.4,25.2h-2.2v1.4h2.5v1.1h-3.9V22h3.9V23h-2.6v1.2h2.2V25.2z"/>
</g>
</svg>
