<?xml version="1.0" encoding="utf-8"?>
<!-- Generator: Adobe Illustrator 24.0.1, SVG Export Plug-In . SVG Version: 6.00 Build 0)  -->
<svg version="1.1" id="Layer_1" xmlns="http://www.w3.org/2000/svg" xmlns:xlink="http://www.w3.org/1999/xlink" x="0px" y="0px"
	 viewBox="0 0 150 50" style="enable-background:new 0 0 150 50;" xml:space="preserve">
<style type="text/css">
	.st0{fill:#CC3300;}
	.st1{fill:#FFFFFF;}
</style>
<ellipse class="st0" cx="75" cy="25" rx="80" ry="24.3"/>
<rect x="-6.2" y="16" class="st1" width="162.7" height="17.4"/>
<g>
	<path class="st0" d="M16.6,31.5h-3.2l-4.8-8.4v8.4H5.3V18h3.3l4.8,8.4V18h3.2V31.5z"/>
	<path class="st0" d="M30.1,25c0,1.3-0.2,2.5-0.7,3.5c-0.5,1-1.2,1.8-2.1,2.3c-0.9,0.5-1.9,0.8-3.1,0.8s-2.2-0.3-3.1-0.8
		c-0.9-0.5-1.6-1.3-2.1-2.3c-0.5-1-0.8-2.1-0.8-3.4v-0.8c0-1.3,0.2-2.5,0.7-3.5c0.5-1,1.2-1.8,2.1-2.3c0.9-0.6,1.9-0.8,3.1-0.8
		c1.1,0,2.2,0.3,3.1,0.8c0.9,0.5,1.6,1.3,2.1,2.3c0.5,1,0.8,2.2,0.8,3.5V25z M26.8,24.4c0-1.3-0.2-2.4-0.7-3.1c-0.4-0.7-1.1-1-1.9-1
		c-1.6,0-2.5,1.2-2.6,3.7l0,1c0,1.3,0.2,2.3,0.7,3.1c0.4,0.7,1.1,1.1,2,1.1c0.8,0,1.5-0.3,1.9-1c0.4-0.7,0.7-1.7,0.7-3V24.4z"/>
	<path class="st0" d="M41.6,20.5h-4.1v11h-3.3v-11h-4V18h11.3V20.5z"/>
	<path class="st0" d="M54.8,28.9h-4.5l-0.8,2.5h-3.5L51,18h3.1l5,13.5h-3.5L54.8,28.9z M51.1,26.4H54l-1.5-4.7L51.1,26.4z"/>
	<path class="st0" d="M64.6,27.8l2.7-9.8h3.6l-4.5,13.5h-3.6L58.3,18h3.6L64.6,27.8z"/>
	<path class="st0" d="M78.9,28.9h-4.5l-0.8,2.5h-3.5l5-13.5h3.1l5,13.5h-3.5L78.9,28.9z M75.2,26.4h2.9l-1.5-4.7L75.2,26.4z"/>
	<path class="st0" d="M87.6,31.5h-3.2V18h3.2V31.5z"/>
	<path class="st0" d="M93.1,29h5.7v2.5h-8.9V18h3.3V29z"/>
	<path class="st0" d="M108,28.9h-4.5l-0.8,2.5h-3.5l5-13.5h3.1l5,13.5h-3.5L108,28.9z M104.3,26.4h2.9l-1.5-4.7L104.3,26.4z"/>
	<path class="st0" d="M113.3,31.5V18h4.9c1.7,0,3.1,0.3,4,1c0.9,0.6,1.4,1.6,1.4,2.8c0,0.7-0.2,1.3-0.5,1.8
		c-0.3,0.5-0.8,0.9-1.4,1.1c0.7,0.2,1.2,0.5,1.6,1c0.4,0.5,0.6,1.1,0.6,1.9c0,1.3-0.4,2.3-1.3,3c-0.8,0.7-2.1,1-3.7,1H113.3z
		 M116.6,23.6h1.7c0.7,0,1.2-0.1,1.5-0.4s0.5-0.6,0.5-1.1c0-0.6-0.2-1-0.5-1.2c-0.3-0.3-0.9-0.4-1.6-0.4h-1.6V23.6z M116.6,25.7V29
		h2.1c0.6,0,1-0.1,1.4-0.4c0.3-0.3,0.5-0.6,0.5-1.1c0-1.1-0.6-1.7-1.7-1.7H116.6z"/>
	<path class="st0" d="M128.8,29h5.7v2.5h-8.9V18h3.3V29z"/>
	<path class="st0" d="M144.2,25.7h-5.1V29h6v2.5h-9.3V18h9.3v2.5h-6.1v2.8h5.1V25.7z"/>
</g>
</svg>
